<svg width="595" height="842" viewBox="0 0 595 842" fill="none" xmlns="http://www.w3.org/2000/svg">
<g clip-path="url(#clip0_65_2)">
<rect width="595" height="842" fill="white"/>
<path d="M75.2273 126.227L35.8011 86.8011C32.6563 83.6562 30.5597 80 29.5114 75.8324C28.4886 71.6648 28.5014 67.5227 29.5497 63.4062C30.598 59.2642 32.6818 55.6591 35.8011 52.5909C38.9972 49.446 42.6406 47.3622 46.7315 46.3395C50.848 45.2912 54.9517 45.2912 59.0426 46.3395C63.1591 47.3878 66.8153 49.4716 70.0114 52.5909L75.2273 57.6534L80.4432 52.5909C83.6648 49.4716 87.321 47.3878 91.4119 46.3395C95.5028 45.2912 99.5938 45.2912 103.685 46.3395C107.801 47.3622 111.457 49.446 114.653 52.5909C117.773 55.6591 119.857 59.2642 120.905 63.4062C121.953 67.5227 121.953 71.6648 120.905 75.8324C119.882 80 117.798 83.6562 114.653 86.8011L75.2273 126.227Z" fill="#D6000C"/>
<path d="M140.551 125V46.4545H219.096V125H140.551Z" fill="#C49700"/>
<path d="M235.08 125L285.168 41.5455L335.217 125H235.08Z" fill="#1D9700"/>
<path d="M390.445 126.227C384.871 126.227 379.629 125.179 374.72 123.082C369.837 120.986 365.528 118.084 361.795 114.376C358.088 110.643 355.173 106.335 353.051 101.452C350.955 96.5682 349.919 91.3267 349.945 85.7273C349.97 80.1278 351.031 74.8864 353.128 70.0028C355.25 65.1193 358.165 60.8239 361.872 57.1165C365.58 53.3835 369.875 50.4687 374.759 48.3722C379.642 46.2756 384.871 45.2273 390.445 45.2273C396.044 45.2273 401.286 46.2756 406.169 48.3722C411.078 50.4687 415.374 53.3835 419.055 57.1165C422.763 60.8239 425.665 65.1193 427.761 70.0028C429.858 74.8864 430.919 80.1278 430.945 85.7273C430.97 91.3267 429.935 96.5682 427.838 101.452C425.741 106.335 422.839 110.643 419.132 114.376C415.425 118.084 411.116 120.986 406.207 123.082C401.298 125.179 396.044 126.227 390.445 126.227Z" fill="#0064E4"/>
<rect x="-57.0188" y="580.426" width="727.344" height="321.604" transform="rotate(-10 -57.0188 580.426)" fill="#D6000C"/>
<rect x="-36.2114" y="658.402" width="692.134" height="241.2" transform="rotate(-10 -36.2114 658.402)" fill="#C49700"/>
<rect x="-28.0598" y="738.605" width="672.205" height="160.8" transform="rotate(-10 -28.0598 738.605)" fill="#1D9700"/>
<rect x="-22.4194" y="819.251" width="636.532" height="80.4" transform="rotate(-10 -22.4194 819.251)" fill="#0064E4"/>
</g>
<defs>
<clipPath id="clip0_65_2">
<rect width="595" height="842" fill="white"/>
</clipPath>
</defs>
</svg>
